<svg width="311.08254394531247px" height="137.002490234375px" xmlns="http://www.w3.org/2000/svg" viewBox="94.45872802734377 6.498754882812506 311.08254394531247 137.002490234375" style="background: rgba(40, 41, 47, 0);" preserveAspectRatio="xMidYMid"><defs><linearGradient id="editing-gradient-gradient" x1="0" x2="1" y1="0.5" y2="0.5" gradientUnits="objectBoundingBox"><stop offset="0" stop-color="#fd3a84"></stop><stop offset="1" stop-color="#ffa68d"></stop></linearGradient></defs><g><g transform="translate(145.07250118255615, 109.37000274658203)"><path d="M9.34-21.06L9.34-21.06L9.34-21.06Q5.63-20.54 3.20-20.54L3.20-20.54L3.20-20.54Q2.37-20.54 2.37-21.18L2.37-21.18L2.37-21.18Q2.37-22.66 4.38-24.29L4.38-24.29L4.38-24.29Q6.40-25.92 10.94-27.14L10.94-27.14L10.94-27.14Q12.99-34.43 15.62-40.51L15.62-40.51L15.62-40.51Q9.22-40.19 5.12-36.29L5.12-36.29L5.12-36.29Q4.10-35.26 3.46-34.69L3.46-34.69L3.46-34.69Q2.82-34.11 2.34-34.11L2.34-34.11L2.34-34.11Q1.86-34.11 1.41-34.88L1.41-34.88L1.41-34.88Q0.96-35.65 0.96-36.93L0.96-36.93L0.96-36.93Q1.02-41.86 7.62-44.93L7.62-44.93L7.62-44.93Q14.21-48 23.87-47.94L23.87-47.94L43.07-47.62L43.07-47.62Q44.80-47.62 44.80-46.27L44.80-46.27L44.80-46.27Q44.80-45.89 44.29-44.90L44.29-44.90L44.29-44.90Q43.78-43.90 43.39-42.75L43.39-42.75L43.39-42.75Q42.56-40.45 39.81-40.45L39.81-40.45L37.76-40.45L29.25-40.51L24.32-40.51L24.32-40.51Q23.81-36.86 21.25-28.61L21.25-28.61L32.96-28.42L32.96-28.42Q33.98-28.42 33.98-27.20L33.98-27.20L33.98-27.20Q33.98-26.82 33.66-25.86L33.66-25.86L33.66-25.86Q33.34-24.90 33.09-23.87L33.09-23.87L33.09-23.87Q32.58-21.76 30.91-21.76L30.91-21.76L21.18-22.21L20.35-22.21L20.35-22.21Q19.97-22.21 19.46-22.14L19.46-22.14L19.46-22.14Q16.13-9.92 16.13-2.82L16.13-2.82L16.13-2.82Q16.13 0.96 8.77 0.96L8.77 0.96L8.77 0.96Q7.17 0.96 6.88-0.67L6.88-0.67L6.88-0.67Q6.59-2.30 6.59-4.99L6.59-4.99L6.59-4.99Q6.59-10.75 9.34-21.06ZM52.67 0.19L52.67 0.19L52.67 0.19Q43.52 0.26 40.19-6.66L40.19-6.66L40.19-6.66Q39.04-9.09 39.04-12.77L39.04-12.77L39.04-12.77Q39.04-16.45 39.68-20.61L39.68-20.61L39.68-20.61Q40.96-28.93 44.61-35.97L44.61-35.97L44.61-35.97Q46.46-39.55 48.77-42.11L48.77-42.11L48.77-42.11Q53.82-47.74 60.03-47.68L60.03-47.68L60.03-47.68Q62.78-47.68 64.35-46.18L64.35-46.18L64.35-46.18Q65.92-44.67 65.92-41.86L65.92-41.86L65.92-41.86Q65.92-39.04 64.26-36.19L64.26-36.19L64.26-36.19Q62.59-33.34 60-30.30L60-30.30L60-30.30Q57.41-27.26 54.27-23.94L54.27-23.94L54.27-23.94Q51.14-20.61 48.13-16.70L48.13-16.70L48.13-14.14L48.13-14.14Q48.13-10.56 49.66-8.90L49.66-8.90L49.66-8.90Q51.20-7.23 53.25-7.23L53.25-7.23L53.25-7.23Q58.75-7.23 62.98-12.67L62.98-12.67L62.98-12.67Q64.70-14.91 65.60-14.91L65.60-14.91L65.60-14.91Q66.50-14.91 66.50-12.74L66.50-12.74L66.50-12.74Q66.50-10.56 65.31-8.29L65.31-8.29L65.31-8.29Q64.13-6.02 62.21-4.13L62.21-4.13L62.21-4.13Q60.29-2.24 57.79-1.02L57.79-1.02L57.79-1.02Q55.30 0.19 52.67 0.19ZM56.13-34.18L56.13-34.18L56.13-34.18Q57.47-35.84 58.24-37.18L58.24-37.18L58.24-37.18Q59.01-38.53 59.01-39.97L59.01-39.97L59.01-39.97Q59.01-41.41 57.98-41.41L57.98-41.41L57.98-41.41Q55.74-41.41 53.02-36.80L53.02-36.80L53.02-36.80Q50.30-32.19 48.96-24.70L48.96-24.70L48.96-24.70Q51.14-28.03 52.96-30.27L52.96-30.27L52.96-30.27Q54.78-32.51 56.13-34.18ZM77.63-6.98L77.63-6.98L77.63-6.98Q82.62-6.98 87.30-10.94L87.30-10.94L87.30-10.94Q89.02-12.42 90.11-13.66L90.11-13.66L90.11-13.66Q91.20-14.91 91.78-14.91L91.78-14.91L91.78-14.91Q92.67-14.91 92.67-13.12L92.67-13.12L92.67-13.12Q92.67-11.33 91.71-9.12L91.71-9.12L91.71-9.12Q90.75-6.91 88.51-4.80L88.51-4.80L88.51-4.80Q83.01 0.38 73.41 0.38L73.41 0.38L73.41 0.38Q65.79 0.38 63.04-5.12L63.04-5.12L63.04-5.12Q62.08-7.04 62.08-10.62L62.08-10.62L62.08-10.62Q62.08-14.21 63.49-18.08L63.49-18.08L63.49-18.08Q64.90-21.95 67.23-24.77L67.23-24.77L67.23-24.77Q69.57-27.58 72.64-29.15L72.64-29.15L72.64-29.15Q75.71-30.72 79.20-30.72L79.20-30.72L79.20-30.72Q82.69-30.72 84.58-28.99L84.58-28.99L84.58-28.99Q86.46-27.26 86.46-24.51L86.46-24.51L86.46-24.51Q86.46-21.76 85.09-20L85.09-20L85.09-20Q83.71-18.24 81.54-17.06L81.54-17.06L81.54-17.06Q79.36-15.87 76.70-14.94L76.70-14.94L76.70-14.94Q74.05-14.02 71.49-12.86L71.49-12.86L71.49-11.26L71.49-11.26Q71.55-8.96 73.41-8L73.41-8L73.41-8Q75.26-7.04 77.63-6.98ZM76.54-25.02L76.54-25.02L76.54-25.02Q73.22-25.02 71.94-17.28L71.94-17.28L71.94-17.28Q73.28-18.18 74.46-18.88L74.46-18.88L74.46-18.88Q75.65-19.58 76.54-20.22L76.54-20.22L76.54-20.22Q78.46-21.63 78.53-23.42L78.53-23.42L78.53-23.42Q78.53-25.02 76.54-25.02ZM102.40-6.72L102.40-6.72Q100.54-3.78 98.98-1.76L98.98-1.76L98.98-1.76Q97.41 0.26 96.45 0.26L96.45 0.26L96.45 0.26Q94.59 0.26 93.12-0.58L93.12-0.58L93.12-0.58Q91.65-1.41 91.71-2.30L91.71-2.30L91.71-2.30Q91.71-2.37 92.42-3.20L92.42-3.20L92.42-3.20Q96.51-8.13 100.42-13.18L100.42-13.18L100.42-13.18Q99.07-18.18 97.92-19.58L97.92-19.58L97.92-19.58Q97.41-20.22 96.77-20.16L96.77-20.16L96.77-20.16Q94.34-20.16 93.25-21.50L93.25-21.50L93.25-21.50Q92.16-22.85 92.16-24.19L92.16-24.19L92.16-24.19Q92.16-26.43 93.98-28.99L93.98-28.99L93.98-28.99Q95.81-31.55 98.08-31.55L98.08-31.55L98.08-31.55Q100.35-31.55 102.72-29.09L102.72-29.09L102.72-29.09Q105.09-26.62 106.94-22.59L106.94-22.59L107.14-21.95L107.14-21.95Q107.97-22.98 108.93-24.06L108.93-24.06L108.93-24.06Q112.38-28.35 113.02-29.57L113.02-29.57L113.02-29.57Q113.66-30.78 114.43-30.78L114.43-30.78L114.43-30.78Q116.10-30.78 117.76-30.08L117.76-30.08L117.76-30.08Q119.42-29.38 119.39-28.16L119.39-28.16L119.39-28.16Q119.36-26.94 118.62-26.08L118.62-26.08L118.62-26.08Q117.89-25.22 116.54-24.03L116.54-24.03L116.54-24.03Q115.20-22.85 113.28-21.06L113.28-21.06L113.28-21.06Q111.36-19.26 108.99-16.26L108.99-16.26L108.99-16.26Q110.66-11.46 111.30-10.11L111.30-10.11L111.30-10.11Q112.77-7.17 114.05-7.17L114.05-7.17L114.05-7.17Q115.01-7.17 116.42-8.38L116.42-8.38L116.42-8.38Q117.82-9.60 119.23-11.04L119.23-11.04L119.23-11.04Q120.64-12.48 121.82-13.70L121.82-13.70L121.82-13.70Q123.01-14.91 123.46-14.91L123.46-14.91L123.46-14.91Q124.35-14.91 124.35-12.74L124.35-12.74L124.35-12.74Q124.35-8.26 119.84-4.03L119.84-4.03L119.84-4.03Q115.33 0.19 110.21 0.19L110.21 0.19L110.21 0.19Q107.78 0.19 105.89-1.76L105.89-1.76L105.89-1.76Q104-3.71 102.40-6.72L102.40-6.72ZM128.83 0.19L128.83 0.19L128.83 0.19Q122.43 0.19 122.43-11.78L122.43-11.78L122.43-11.78Q122.43-18.30 124.03-23.62L124.03-23.62L124.03-23.62Q126.53-31.81 129.66-31.81L129.66-31.81L129.66-31.81Q131.52-31.81 132.61-29.31L132.61-29.31L132.61-29.31Q133.50-27.39 133.44-25.54L133.44-25.54L133.44-25.54Q133.44-22.98 131.90-16.51L131.90-16.51L131.90-16.51Q130.43-10.88 130.43-9.54L130.43-9.54L130.43-9.54Q130.43-8.19 131.10-7.68L131.10-7.68L131.10-7.68Q131.78-7.17 132.70-7.17L132.70-7.17L132.70-7.17Q133.63-7.17 135.04-8.38L135.04-8.38L135.04-8.38Q136.45-9.60 137.86-11.04L137.86-11.04L137.86-11.04Q139.26-12.48 140.45-13.70L140.45-13.70L140.45-13.70Q141.63-14.91 142.08-14.91L142.08-14.91L142.08-14.91Q142.98-14.91 142.98-12.74L142.98-12.74L142.98-12.74Q142.98-8.26 138.46-4L138.46-4L138.46-4Q133.95 0.26 128.83 0.19ZM131.46-36.99L131.46-36.99L131.46-36.99Q129.73-39.55 129.73-42.50L129.73-42.50L129.73-42.50Q129.73-45.44 130.66-47.39L130.66-47.39L130.66-47.39Q131.58-49.34 132.42-50.27L132.42-50.27L132.42-50.27Q133.25-51.20 134.34-51.20L134.34-51.20L134.34-51.20Q136.13-51.20 137.60-48.54L137.60-48.54L137.60-48.54Q139.07-45.89 139.07-44.10L139.07-44.10L139.07-44.10Q139.07-40.77 136.74-38.88L136.74-38.88L136.74-38.88Q134.40-36.99 131.46-36.99ZM164.29-29.12L164.29-29.12L164.29-29.12Q165.18-31.94 167.17-31.94L167.17-31.94L167.17-31.94Q168.96-31.87 170.56-29.41L170.56-29.41L170.56-29.41Q172.16-26.94 172.16-25.60L172.16-25.60L172.16-25.60Q172.03-22.98 170.56-17.25L170.56-17.25L170.56-17.25Q169.09-11.52 166.40-2.37L166.40-2.37L166.40-2.37Q170.62-5.63 174.72-10.88L174.72-10.88L174.72-10.88Q176.13-12.67 177.12-13.79L177.12-13.79L177.12-13.79Q178.11-14.91 178.75-14.91L178.75-14.91L178.75-14.91Q179.65-14.91 179.65-12.86L179.65-12.86L179.65-12.86Q179.65-8.83 175.14-3.46L175.14-3.46L175.14-3.46Q170.62 1.92 164.10 4.93L164.10 4.93L164.10 4.93Q163.33 7.49 162.43 9.79L162.43 9.79L162.43 9.79Q161.54 12.10 160.13 13.82L160.13 13.82L160.13 13.82Q157.06 17.54 150.78 17.54L150.78 17.54L150.78 17.54Q146.56 17.54 143.58 15.10L143.58 15.10L143.58 15.10Q140.61 12.67 140.61 9.02L140.61 9.02L140.61 9.02Q140.61 7.04 141.92 5.89L141.92 5.89L141.92 5.89Q143.23 4.74 145.54 4.03L145.54 4.03L145.54 4.03Q147.84 3.33 150.94 2.82L150.94 2.82L150.94 2.82Q154.05 2.30 157.57 1.54L157.57 1.54L157.57 1.54Q157.89 0.45 158.11-0.61L158.11-0.61L158.11-0.61Q158.34-1.66 158.59-2.75L158.59-2.75L158.59-2.75Q155.07 0.51 149.98 0.51L149.98 0.51L149.98 0.51Q144.90 0.51 142.14-2.30L142.14-2.30L142.14-2.30Q139.39-5.12 139.46-9.15L139.46-9.15L139.46-9.15Q139.46-20.03 146.69-26.30L146.69-26.30L146.69-26.30Q151.68-30.59 157.06-30.59L157.06-30.59L157.06-30.59Q158.91-30.59 161.06-30.14L161.06-30.14L161.06-30.14Q163.20-29.70 164.29-29.12ZM148.86-11.26L148.86-11.26L148.86-11.26Q148.86-6.34 152.51-6.34L152.51-6.34L152.51-6.34Q154.56-6.34 156.67-7.87L156.67-7.87L156.67-7.87Q158.78-9.41 160.06-12.86L160.06-12.86L160.06-12.86Q161.02-17.34 162.08-21.12L162.08-21.12L162.08-21.12Q163.14-24.90 163.52-26.37L163.52-26.37L163.52-26.37Q158.14-25.66 153.50-21.57L153.50-21.57L153.50-21.57Q148.86-17.47 148.86-11.26ZM155.58 7.42L155.58 7.42L155.58 7.42Q153.28 7.87 151.55 8.13L151.55 8.13L151.55 8.13Q149.82 8.38 148.70 8.58L148.70 8.58L148.70 8.58Q147.58 8.77 147.04 9.02L147.04 9.02L147.04 9.02Q146.50 9.28 146.50 9.86L146.50 9.86L146.50 9.86Q146.50 11.01 147.94 11.84L147.94 11.84L147.94 11.84Q149.38 12.67 150.78 12.61L150.78 12.61L150.78 12.61Q153.22 12.61 155.58 7.42ZM184.96-31.94L184.96-31.94L184.96-31.94Q187.26-31.94 189.31-27.52L189.31-27.52L189.31-27.52Q192.32-30.66 196.77-30.66L196.77-30.66L196.77-30.66Q201.22-30.66 203.46-28.70L203.46-28.70L203.46-28.70Q205.70-26.75 205.70-23.20L205.70-23.20L205.70-23.20Q205.70-19.65 204.77-16L204.77-16L204.77-16Q203.84-12.35 203.42-10.78L203.42-10.78L203.42-10.78Q203.01-9.22 203.01-8.19L203.01-8.19L203.01-8.19Q203.01-7.17 203.71-7.17L203.71-7.17L203.71-7.17Q204.67-7.17 206.08-8.38L206.08-8.38L206.08-8.38Q207.49-9.60 208.90-11.04L208.90-11.04L208.90-11.04Q210.30-12.48 211.49-13.70L211.49-13.70L211.49-13.70Q212.67-14.91 213.12-14.91L213.12-14.91L213.12-14.91Q214.02-14.91 214.02-12.74L214.02-12.74L214.02-12.74Q214.02-8.26 209.60-4.10L209.60-4.10L209.60-4.10Q202.18 0.26 200.13 0.26L200.13 0.26L200.13 0.26Q199.94 0.26 199.87 0.19L199.87 0.19L199.87 0.19Q194.75 0.19 194.75-8L194.75-8L194.75-8Q194.75-11.52 195.42-14.46L195.42-14.46L195.42-14.46Q196.10-17.41 196.42-18.75L196.42-18.75L196.42-18.75Q196.74-20.10 196.74-21.50L196.74-21.50L196.74-21.50Q196.74-23.81 194.08-23.81L194.08-23.81L194.08-23.81Q191.42-23.81 189.02-19.87L189.02-19.87L189.02-19.87Q186.62-15.94 185.79-11.71L185.79-11.71L185.79-11.26L185.79-11.26Q185.79-9.09 186.46-6.78L186.46-6.78L186.46-6.78Q187.14-4.48 187.14-3.58L187.14-3.58L187.14-3.58Q187.14-1.41 181.70 0.70L181.70 0.70L181.70 0.70Q180.86 1.02 180.22 1.02L180.22 1.02L180.22 1.02Q178.62 1.02 178.02-0.64L178.02-0.64L178.02-0.64Q177.41-2.30 177.41-5.82L177.41-5.82L177.41-5.82Q177.41-14.91 178.11-18.94L178.11-18.94L178.11-18.94Q179.07-24.96 182.46-30.14L182.46-30.14L182.46-30.14Q183.62-31.94 184.96-31.94Z" fill="url(#editing-gradient-gradient)"></path></g></g><style>text {
  font-size: 64px;
  font-family: Arial Black;
  dominant-baseline: central;
  text-anchor: middle;
}</style></svg>