<svg width="613" height="488" viewBox="0 0 613 488" fill="none" xmlns="http://www.w3.org/2000/svg">
<path d="M404.569 327.76C406.572 329.329 409.119 329.847 411.575 329.186C419.399 327.08 427.27 329.016 433.067 333.558C435.069 335.127 437.616 335.644 440.072 334.983C442.527 334.322 444.54 332.576 445.537 330.126C456.812 302.411 463.74 278.952 469.662 251.474L443.813 225.325L409.961 239.328C404.387 267.54 401.887 291.237 401.437 321.154C401.397 323.799 402.567 326.192 404.569 327.76V327.76Z" fill="url(#paint0_linear)"/>
<path d="M371.485 417.852L373.242 418.21C411.783 426.051 449.505 401.077 457.346 362.536C461.906 340.123 449.614 317.741 425.927 312.922C404.172 308.496 382.615 322.402 378.1 344.592C375.208 358.81 378.984 370.806 382.027 380.444C383.971 386.643 385.823 392.501 384.352 395.197C383.577 396.618 380.811 399.391 370.976 402.052C367.343 403.037 364.865 406.387 364.989 410.152C365.113 413.917 367.8 417.103 371.485 417.852ZM469.662 251.475C475.069 225.716 479.563 196.29 485.526 156.387C488.034 139.985 488.355 132.623 491.643 111.573C492.896 98.8962 484.619 87.4298 472.2 84.9032C459.782 82.3767 447.682 89.6974 443.882 101.855C443.882 101.855 436.449 130.319 432.125 146.683C422.15 185.935 414.854 214.46 409.96 239.328C420.095 238.406 430.384 239.173 440.573 241.246C450.604 243.286 460.502 246.793 469.662 251.475V251.475Z" fill="url(#paint1_linear)"/>
<path d="M383.543 131.474C334.053 69.2503 243.42 49.0516 170.971 81.7033C101.617 113.029 60.555 181.828 66.1581 257.444C68.9078 291.251 81.1252 323.43 101.447 350.504C148.982 414.187 238.025 440.407 313.117 409.273C330.833 401.635 343.998 386.769 349.883 368.821C356.102 349.838 352.637 327.017 342.515 309.834L330.341 289.166C321.584 274.3 326.554 255.083 341.42 246.327L362.096 234.147C379.28 224.025 393.422 205.719 397.191 186.11C400.88 166.852 396.599 148.321 383.543 131.474V131.474Z" fill="url(#paint2_linear)"/>
<path d="M172.385 225.464C176.705 208.76 166.71 191.673 149.924 187.333C133.12 182.987 116.077 193.137 111.802 209.789C107.464 226.56 117.554 243.615 134.252 247.902C150.959 252.269 168.043 242.196 172.385 225.464ZM147.642 296.2C147.625 296.21 147.625 296.21 147.625 296.21C135.554 308.51 135.727 328.35 148.033 340.451C160.379 352.568 180.241 352.327 192.259 340.075C204.369 327.764 204.191 307.915 191.88 295.804C179.566 283.731 159.695 283.91 147.642 296.2V296.2ZM338.087 147.032C325.779 134.966 305.89 135.156 293.862 147.408C281.751 159.719 281.929 179.568 294.24 191.679C306.494 203.705 326.332 203.626 338.496 191.273C350.566 178.973 350.393 159.133 338.087 147.032V147.032ZM206.834 113.087C189.828 117.841 180.486 135.24 185.029 151.606C189.66 168.217 206.928 177.987 223.537 173.393C240.327 168.719 249.942 151.437 245.337 134.865C240.659 118.014 223.295 108.517 206.834 113.087ZM262.582 314.09C245.571 318.845 236.231 336.295 240.79 352.59C246.225 372.347 269.001 381.708 286.873 371.18C298.526 364.316 305.03 350.058 301.086 335.868C296.46 319.266 279.192 309.496 262.582 314.09Z" fill="url(#paint3_linear)"/>
<defs>
<linearGradient id="paint0_linear" x1="467.866" y1="107.608" x2="422.168" y2="332.221" gradientUnits="userSpaceOnUse">
<stop stop-color="#FFC2CC"/>
<stop offset="1" stop-color="#FFF2F4"/>
</linearGradient>
<linearGradient id="paint1_linear" x1="472.385" y1="84.9895" x2="403.345" y2="424.33" gradientUnits="userSpaceOnUse">
<stop stop-color="#FD3A84"/>
<stop offset="1" stop-color="#FFA68D"/>
</linearGradient>
<linearGradient id="paint2_linear" x1="334.342" y1="397.37" x2="153.658" y2="90.6303" gradientUnits="userSpaceOnUse">
<stop stop-color="#FD3A84"/>
<stop offset="1" stop-color="#FFA68D"/>
</linearGradient>
<linearGradient id="paint3_linear" x1="310.077" y1="357.512" x2="176.046" y2="129.973" gradientUnits="userSpaceOnUse">
<stop stop-color="#FFC2CC"/>
<stop offset="1" stop-color="#FFF2F4"/>
</linearGradient>
</defs>
</svg>
