<svg width="1066" height="950" viewBox="0 0 1066 950" fill="none" xmlns="http://www.w3.org/2000/svg">
<path d="M41.8822 756.651C29.5208 758.384 19.2918 759.251 11.1952 759.251C8.42974 759.251 7.047 758.184 7.047 756.052C7.047 751.12 10.3956 745.938 17.0927 740.507C23.8232 735.075 34.7519 730.327 49.8788 726.261C56.7092 701.969 64.5059 679.693 73.2688 659.433C51.9445 660.499 34.452 667.53 20.7911 680.526C17.3926 683.958 14.6271 686.624 12.4947 688.523C10.3623 690.456 8.49638 691.422 6.89706 691.422C5.29774 691.422 3.7484 690.14 2.24904 687.574C0.749681 685.008 0 681.592 0 677.327C0.199915 660.899 11.2952 647.57 33.2858 637.34C55.2431 627.11 82.315 622.095 114.501 622.295L210.46 623.894C216.225 623.894 219.107 626.144 219.107 630.642C219.107 631.908 218.257 634.191 216.558 637.49C214.859 640.822 213.359 644.404 212.06 648.236C209.294 655.901 203.33 659.733 194.167 659.733H183.922L141.39 659.433H116.75C115.051 671.596 109.937 691.422 101.407 718.914L159.932 719.863C163.33 719.863 165.03 721.896 165.03 725.961C165.03 727.228 164.497 729.46 163.43 732.659C162.364 735.858 161.415 739.174 160.582 742.606C158.882 749.637 155.251 753.153 149.686 753.153L101.057 750.903H96.9087C95.6426 750.903 94.1599 751.02 92.4606 751.253C81.3654 791.973 75.8177 824.163 75.8177 847.822C75.8177 860.418 63.5563 866.716 39.0334 866.716C33.7023 866.716 30.5537 864 29.5874 858.569C28.6211 853.137 28.138 845.939 28.138 836.976C28.138 817.782 32.7194 791.007 41.8822 756.651ZM258.44 862.867C227.953 863.1 207.162 851.687 196.067 828.628C192.235 820.531 190.319 810.351 190.319 798.088C190.319 785.825 191.385 772.763 193.518 758.901C197.782 731.176 205.996 705.585 218.157 682.125C224.321 670.196 231.252 659.966 238.948 651.435C255.774 632.675 274.533 623.394 295.224 623.594C304.387 623.594 311.584 626.094 316.815 631.092C322.046 636.124 324.662 643.321 324.662 652.685C324.662 662.082 321.896 671.529 316.365 681.026C310.801 690.523 303.704 700.336 295.074 710.466C286.445 720.596 276.899 731.193 266.437 742.256C256.008 753.352 245.779 765.415 235.75 778.444V791.24C235.75 803.17 238.299 811.9 243.396 817.432C248.528 822.997 254.508 825.779 261.339 825.779C279.664 825.779 295.874 816.715 309.968 798.588C315.699 791.124 320.064 787.392 323.062 787.392C326.061 787.392 327.561 791.007 327.561 798.238C327.561 805.502 325.578 812.917 321.613 820.481C317.681 828.045 312.517 834.976 306.12 841.274C299.722 847.572 292.359 852.754 284.029 856.819C275.733 860.851 267.203 862.867 258.44 862.867ZM275.733 691.073C280.197 685.541 283.713 680.543 286.278 676.077C288.844 671.579 290.126 666.93 290.126 662.132C290.126 657.333 288.411 654.934 284.979 654.934C277.515 654.934 269.252 662.615 260.189 677.977C251.126 693.339 244.363 713.499 239.898 738.457C247.161 727.361 253.825 718.081 259.889 710.616C265.953 703.152 271.235 696.637 275.733 691.073ZM383.187 827.029C399.813 827.029 415.923 820.431 431.516 807.235C437.247 802.303 441.928 797.772 445.56 793.64C449.192 789.474 451.974 787.392 453.907 787.392C456.872 787.392 458.355 790.374 458.355 796.339C458.355 802.303 456.756 808.968 453.557 816.332C450.358 823.696 445.027 830.894 437.564 837.925C419.238 855.186 394.082 863.817 362.096 863.817C336.707 863.817 319.431 854.653 310.268 836.326C307.069 829.928 305.47 820.764 305.47 808.835C305.47 796.872 307.819 784.442 312.517 771.547C317.215 758.651 323.446 747.504 331.209 738.107C339.006 728.744 348.018 721.446 358.247 716.214C368.476 710.983 379.405 708.367 391.033 708.367C402.662 708.367 411.625 711.249 417.922 717.014C424.186 722.779 427.318 730.243 427.318 739.407C427.318 748.571 425.036 756.085 420.471 761.95C415.873 767.814 409.959 772.713 402.729 776.645C395.465 780.61 387.402 784.143 378.539 787.242C369.709 790.307 361.03 793.773 352.5 797.638V805.636C352.7 813.3 355.898 818.731 362.096 821.93C368.26 825.129 375.29 826.829 383.187 827.029ZM377.739 736.858C366.677 736.858 359.014 749.754 354.749 775.545C359.214 772.546 363.412 769.88 367.344 767.548C371.309 765.215 374.774 762.983 377.739 760.85C384.136 756.152 387.452 750.82 387.685 744.855C387.685 739.524 384.37 736.858 377.739 736.858ZM506.984 828.328C500.787 838.125 495.089 846.389 489.891 853.12C484.66 859.851 480.445 863.217 477.247 863.217C471.049 863.217 465.502 861.818 460.604 859.018C455.706 856.253 453.357 853.387 453.557 850.421C453.557 850.188 454.74 848.688 457.105 845.923C470.733 829.495 484.061 812.867 497.088 796.039C492.59 779.377 488.425 768.714 484.594 764.049C482.894 761.916 480.979 760.95 478.846 761.15C470.75 761.15 464.885 758.917 461.254 754.452C457.622 749.954 455.806 745.472 455.806 741.006C455.806 733.542 458.838 725.545 464.902 717.014C470.999 708.484 477.83 704.218 485.393 704.218C492.957 704.218 500.687 708.317 508.583 716.514C516.48 724.745 523.51 735.575 529.674 749.004L530.674 752.203C533.44 748.771 536.422 745.255 539.62 741.656C551.115 727.361 557.929 718.18 560.062 714.115C562.194 710.083 564.543 708.067 567.109 708.067C572.673 708.067 578.22 709.233 583.751 711.566C589.282 713.899 591.998 717.098 591.898 721.163C591.798 725.228 590.515 728.694 588.05 731.56C585.617 734.425 582.152 737.841 577.654 741.806C573.189 745.738 567.758 750.687 561.361 756.651C554.964 762.649 547.817 770.647 539.92 780.644C545.484 796.639 549.333 806.885 551.465 811.384C556.363 821.181 560.944 826.079 565.209 826.079C568.408 826.079 572.356 824.063 577.054 820.031C581.719 815.966 586.4 811.534 591.098 806.735C595.796 801.937 600.111 797.505 604.043 793.44C608.008 789.408 610.74 787.392 612.239 787.392C615.205 787.392 616.687 791.007 616.687 798.238C616.687 813.167 609.174 827.679 594.147 841.774C579.12 855.836 563.077 862.867 546.018 862.867C537.921 862.867 530.724 859.618 524.427 853.12C518.129 846.622 512.315 838.358 506.984 828.328ZM639.078 862.867C617.754 862.867 607.092 842.924 607.092 803.036C607.092 781.31 609.757 761.583 615.088 743.856C623.418 716.564 632.797 702.919 643.226 702.919C649.423 702.919 654.338 707.084 657.97 715.415C660.935 721.813 662.318 728.094 662.118 734.259C662.118 742.789 659.552 757.834 654.421 779.394C649.523 798.155 647.074 809.768 647.074 814.233C647.074 818.731 648.191 821.83 650.423 823.53C652.689 825.229 655.354 826.079 658.42 826.079C661.518 826.079 665.417 824.063 670.115 820.031C674.813 815.966 679.511 811.534 684.209 806.735C688.873 801.937 693.188 797.505 697.153 793.44C701.085 789.408 703.8 787.392 705.3 787.392C708.298 787.392 709.798 791.007 709.798 798.238C709.798 813.167 702.268 827.729 687.207 841.924C672.18 856.119 656.137 863.1 639.078 862.867ZM652.222 677.027C646.458 668.497 643.576 659.316 643.576 649.486C643.576 639.689 645.125 631.542 648.224 625.044C651.289 618.546 654.221 613.748 657.02 610.649C659.786 607.55 662.984 606 666.616 606C672.58 606 678.011 610.432 682.909 619.296C687.807 628.126 690.256 635.524 690.256 641.489C690.256 652.585 686.374 661.282 678.611 667.58C670.814 673.878 662.018 677.027 652.222 677.027ZM816.302 716.364C819.268 706.967 824.066 702.269 830.696 702.269C836.66 702.502 842.308 706.718 847.639 714.915C852.97 723.146 855.636 729.494 855.636 733.959C855.203 742.689 852.537 756.601 847.639 775.695C842.741 794.789 835.811 819.581 826.848 850.071C840.909 839.208 854.769 825.029 868.43 807.535C873.128 801.57 877.126 796.722 880.425 792.99C883.724 789.258 886.439 787.392 888.572 787.392C891.57 787.392 893.07 790.807 893.07 797.638C893.07 811.067 885.556 826.729 870.529 844.623C855.469 862.551 837.077 876.529 815.353 886.56C812.787 895.09 810.005 903.188 807.006 910.852C804.041 918.549 800.209 925.264 795.511 930.995C785.282 943.391 769.706 949.589 748.781 949.589C734.72 949.589 722.726 945.524 712.796 937.393C702.901 929.296 697.953 919.166 697.953 907.003C697.953 900.405 700.135 895.19 704.5 891.358C708.865 887.526 714.896 884.427 722.592 882.061C730.256 879.728 739.252 877.712 749.581 876.013C759.943 874.28 770.988 872.148 782.717 869.615C783.783 865.983 784.683 862.401 785.416 858.868C786.182 855.37 786.982 851.804 787.814 848.172C776.086 859.035 761.742 864.467 744.783 864.467C727.857 864.467 714.796 859.785 705.6 850.421C696.437 841.024 691.972 829.611 692.205 816.182C692.205 779.927 704.25 751.353 728.34 730.46C744.966 716.164 762.242 709.017 780.168 709.017C786.332 709.017 792.996 709.767 800.159 711.266C807.29 712.732 812.671 714.432 816.302 716.364ZM739.185 805.636C739.185 822.03 745.266 830.228 757.427 830.228C764.258 830.228 771.188 827.679 778.219 822.58C785.249 817.448 790.897 809.135 795.161 797.638C798.36 782.71 801.725 768.947 805.257 756.352C808.789 743.756 811.188 735.008 812.454 730.11C794.528 732.476 777.835 740.473 762.375 754.102C746.915 767.765 739.185 784.942 739.185 805.636ZM772.771 899.006C765.108 900.505 758.394 901.688 752.63 902.554C746.865 903.387 742.117 904.137 738.386 904.804C734.654 905.437 731.888 906.17 730.089 907.003C728.29 907.869 727.39 909.269 727.39 911.202C727.39 915.034 729.789 918.333 734.587 921.098C739.385 923.864 744.116 925.147 748.781 924.947C756.911 924.947 764.908 916.3 772.771 899.006ZM919.608 702.269C927.272 702.269 934.519 709.633 941.349 724.362C951.378 713.899 963.806 708.667 978.633 708.667C993.46 708.667 1004.61 711.933 1012.07 718.464C1019.53 724.962 1023.26 734.125 1023.26 745.955C1023.26 757.784 1021.71 769.781 1018.62 781.943C1015.52 794.106 1013.27 802.803 1011.87 808.035C1010.5 813.233 1009.82 817.548 1009.82 820.981C1009.82 824.38 1010.99 826.079 1013.32 826.079C1016.52 826.079 1020.47 824.063 1025.16 820.031C1029.86 815.966 1034.56 811.534 1039.26 806.735C1043.92 801.937 1048.24 797.505 1052.2 793.44C1056.13 789.408 1058.85 787.392 1060.35 787.392C1063.35 787.392 1064.85 791.007 1064.85 798.238C1064.85 813.167 1057.48 827.562 1042.76 841.424C1018.03 855.953 1002.26 863.217 995.426 863.217C994.793 863.217 994.36 863.1 994.127 862.867C977.067 862.867 968.538 849.222 968.538 821.93C968.538 810.201 969.654 799.438 971.886 789.641C974.152 779.811 975.818 772.663 976.884 768.198C977.95 763.699 978.483 759.117 978.483 754.452C978.483 746.755 974.052 742.906 965.189 742.906C956.326 742.906 947.896 749.47 939.9 762.6C931.903 775.695 926.522 789.291 923.757 803.386V805.636C923.757 812.867 924.873 820.331 927.105 828.028C929.371 835.693 930.504 841.024 930.504 844.023C930.504 851.254 921.441 858.385 903.315 865.416C900.517 866.483 898.051 867.016 895.918 867.016C890.587 867.016 886.922 864.25 884.923 858.719C882.891 853.187 881.874 844.556 881.874 832.827C881.874 802.537 883.041 780.677 885.373 767.248C888.572 747.188 895.819 728.527 907.114 711.266C910.979 705.268 915.144 702.269 919.608 702.269Z" fill="url(#paint0_linear)"/>
<path d="M740.323 408.014C743.526 410.39 747.539 411.097 751.361 409.961C763.539 406.339 775.955 409.05 785.225 415.932C788.428 418.308 792.441 419.015 796.263 417.878C800.085 416.741 803.168 413.922 804.629 410.04C821.163 366.139 831.059 329.087 839.213 285.778L797.626 245.855L745.144 269.191C737.566 313.637 734.621 350.88 735.142 397.788C735.188 401.935 737.121 405.639 740.323 408.014V408.014Z" fill="url(#paint1_linear)"/>
<path d="M692.166 550.575L694.935 551.063C755.664 561.771 813.76 521.081 824.468 460.352C830.695 425.037 810.511 390.463 773.189 383.881C738.91 377.837 705.694 400.518 699.529 435.48C695.579 457.883 701.99 476.53 707.154 491.511C710.456 501.148 713.599 510.253 711.404 514.538C710.248 516.797 706.026 521.257 690.721 525.832C685.067 527.525 681.32 532.876 681.67 538.773C682.018 544.668 686.36 549.551 692.166 550.575ZM839.214 285.779C846.631 245.185 852.466 198.881 860.175 136.094C863.433 110.286 863.634 98.733 867.923 65.6057C869.366 45.6862 855.922 28.0545 836.355 24.6042C816.788 21.154 798.124 33.1245 792.667 52.3361C792.667 52.3361 782.186 97.2522 776.08 123.077C762.056 185.008 751.792 230.014 745.143 269.191C760.99 267.33 777.147 268.109 793.202 270.94C809.008 273.727 824.664 278.816 839.214 285.779V285.779Z" fill="url(#paint2_linear)"/>
<path d="M716.059 221.073C700.151 106.464 602.583 14.1676 488.97 1.59449C380.161 -10.3551 279.058 45.6003 230.806 144.583C209.536 189.018 201.187 238.405 206.607 287.378C219.028 402.373 310.23 501.048 426.011 517.476C453.539 520.985 480.705 512.066 501.099 493.902C522.662 474.687 535.025 443.503 535.025 414.472V379.556C535.025 354.44 555.211 334.008 580.025 334.008H614.537C643.219 334.008 674.107 321.495 693.091 299.685C711.719 278.256 719.941 251.85 716.059 221.073V221.073Z" fill="url(#paint3_linear)"/>
<path d="M385.786 182.954C403.332 165.195 403.418 136.378 385.786 118.533C368.134 100.666 339.606 100.807 322.153 118.533C304.536 136.364 304.59 165.21 322.153 182.925C339.669 200.745 368.191 200.733 385.786 182.954ZM303.491 253.395C303.462 253.395 303.462 253.395 303.462 253.395C279.526 259.905 265.259 284.917 271.675 309.188C278.129 333.506 302.918 347.879 326.753 341.391C350.747 334.897 365.015 309.869 358.599 285.583C352.153 261.342 327.398 246.886 303.491 253.395V253.395ZM648.374 207.003C641.929 182.776 617.144 168.32 593.296 174.8C569.302 181.294 555.034 206.322 561.45 230.608C567.856 254.746 592.497 269.304 616.587 262.796C640.523 256.286 654.79 231.274 648.374 207.003V207.003ZM510.503 67.455C485.959 60.8536 461.683 75.7749 455.366 99.6579C448.979 123.914 463.247 148.927 487.182 155.435C511.4 161.978 535.93 147.405 542.319 123.217C548.823 98.6255 534.238 73.8852 510.503 67.455ZM432.866 360.755C408.315 354.151 384.003 369.137 377.759 392.943C370.072 421.739 391.463 450.308 421.294 450.308C440.745 450.308 459.212 437.23 464.683 416.518C471.069 392.276 456.802 367.264 432.866 360.755Z" fill="url(#paint4_linear)"/>
<defs>
<linearGradient id="paint0_linear" x1="0" y1="777.795" x2="1064.85" y2="777.795" gradientUnits="userSpaceOnUse">
<stop stop-color="#FD3A84"/>
<stop offset="1" stop-color="#FFA68D"/>
</linearGradient>
<linearGradient id="paint1_linear" x1="830.494" y1="60.3671" x2="768.089" y2="414.283" gradientUnits="userSpaceOnUse">
<stop stop-color="#FFC2CC"/>
<stop offset="1" stop-color="#FFF2F4"/>
</linearGradient>
<linearGradient id="paint2_linear" x1="836.648" y1="24.7319" x2="742.368" y2="559.419" gradientUnits="userSpaceOnUse">
<stop stop-color="#FD3A84"/>
<stop offset="1" stop-color="#FFA68D"/>
</linearGradient>
<linearGradient id="paint3_linear" x1="461" y1="518.228" x2="461" y2="0.000308888" gradientUnits="userSpaceOnUse">
<stop stop-color="#FD3A84"/>
<stop offset="1" stop-color="#FFA68D"/>
</linearGradient>
<linearGradient id="paint4_linear" x1="460.025" y1="450.308" x2="460.025" y2="65.8871" gradientUnits="userSpaceOnUse">
<stop stop-color="#FFC2CC"/>
<stop offset="1" stop-color="#FFF2F4"/>
</linearGradient>
</defs>
</svg>
